<svg xmlns="http://www.w3.org/2000/svg" width="13.808" height="13.808" viewBox="0 0 13.808 13.808">
  <path id="delete" d="M12.976,2.589H.894a.84.84,0,0,1-.607-.25.815.815,0,0,1-.256-.607.849.849,0,0,1,.25-.614A.821.821,0,0,1,.894.864H5.209a.84.84,0,0,1,.25-.607A.823.823,0,0,1,6.072,0H7.8a.823.823,0,0,1,.614.256.84.84,0,0,1,.25.607h4.315a.829.829,0,0,1,.607.256.837.837,0,0,1,.256.614.814.814,0,0,1-.256.607.842.842,0,0,1-.607.25Zm0,9.493a1.726,1.726,0,0,1-1.726,1.726H2.619A1.664,1.664,0,0,1,1.4,13.3a1.661,1.661,0,0,1-.506-1.221V3.453H12.975v8.63ZM4.346,6.041a.874.874,0,0,0-.87-.863.814.814,0,0,0-.607.256.842.842,0,0,0-.25.607V11.22a.852.852,0,0,0,.856.863.849.849,0,0,0,.614-.25.821.821,0,0,0,.256-.614V6.042Zm3.452,0a.874.874,0,0,0-.87-.863.814.814,0,0,0-.607.256.842.842,0,0,0-.25.607V11.22a.852.852,0,0,0,.856.863.849.849,0,0,0,.614-.25A.821.821,0,0,0,7.8,11.22V6.042Zm3.452,0a.874.874,0,0,0-.87-.863.814.814,0,0,0-.607.256.842.842,0,0,0-.25.607V11.22a.852.852,0,0,0,.856.863.849.849,0,0,0,.614-.25.821.821,0,0,0,.256-.614V6.042Z" transform="translate(-0.031 -0.001)" fill="#fff"/>
</svg>
