<svg xmlns="http://www.w3.org/2000/svg" width="57" height="57" viewBox="0 0 57 57">
  <g id="dollar-solid" transform="translate(-2 -2)">
    <path id="Path_232" data-name="Path 232" d="M30.5,2A28.5,28.5,0,1,0,59,30.5,28.5,28.5,0,0,0,30.5,2ZM44.127,40.457C42.345,45.8,37.7,47.3,33.617,47.582v3.563a2.227,2.227,0,0,1-4.453,0V47.582a20.431,20.431,0,0,1-11.133-4.613,2.231,2.231,0,1,1,3.046-3.26,16.227,16.227,0,0,0,8.1,3.456V31.978a17.153,17.153,0,0,1-6.644-2.512,8.55,8.55,0,0,1-3.4-10.4c1.051-2.69,4.311-5.753,10.046-6.252V9.57a2.227,2.227,0,0,1,4.453,0v3.313a17.225,17.225,0,0,1,8.728,3.563,2.227,2.227,0,0,1-2.957,3.278,12.718,12.718,0,0,0-5.771-2.333V28.309c1.069.232,2.209.481,3.4.855a10.42,10.42,0,0,1,6.573,5.023,8.265,8.265,0,0,1,.517,6.27Z" fill="#22bf7d"/>
    <path id="Path_233" data-name="Path 233" d="M21.834,19.874q-1.069-.321-2.084-.534V29.6c3.563-.356,5.468-1.6,6.288-4.1a3.83,3.83,0,0,0-.267-2.814A6.217,6.217,0,0,0,21.834,19.874Z" transform="translate(13.867 13.547)" fill="#22bf7d"/>
    <path id="Path_234" data-name="Path 234" d="M14.071,13.988A4.115,4.115,0,0,0,15.852,19.1a11.631,11.631,0,0,0,4.133,1.639V10.55c-3.741.445-5.468,2.3-5.914,3.438Z" transform="translate(9.197 6.68)" fill="#22bf7d"/>
  </g>
</svg>
