<svg xmlns="http://www.w3.org/2000/svg" width="15.829" height="16.002" viewBox="0 0 15.829 16.002">
  <g id="check-circle-fill" transform="translate(0)">
    <path id="Path_196" data-name="Path 196" d="M15.829,8a7.958,7.958,0,0,1-7.914,8A7.958,7.958,0,0,1,0,8,7.958,7.958,0,0,1,7.914,0a7.958,7.958,0,0,1,7.914,8ZM11.9,4.971a.737.737,0,0,0-1.068.022L7.4,9.418,5.326,7.324A.736.736,0,0,0,4.3,7.346a.756.756,0,0,0-.022,1.038L6.9,11.031a.737.737,0,0,0,1.068-.02L11.912,6.02a.756.756,0,0,0-.01-1.05Z" transform="translate(0 0)" fill="#1dcba9" fill-rule="evenodd"/>
  </g>
</svg>
