<svg xmlns="http://www.w3.org/2000/svg" width="8.792" height="16.886" viewBox="0 0 8.792 16.886">
  <path id="__TEMP__SVG__" d="M9.051,11.166a3.585,3.585,0,0,1-.938,2.483,4.046,4.046,0,0,1-2.435,1.286v1.649a.291.291,0,0,1-.3.3H4.1a.306.306,0,0,1-.3-.3V14.935a5.938,5.938,0,0,1-1.2-.292,6.4,6.4,0,0,1-.957-.419,6.2,6.2,0,0,1-.7-.452q-.32-.241-.438-.353a2.16,2.16,0,0,1-.165-.17.286.286,0,0,1-.019-.386L1.3,11.59a.293.293,0,0,1,.217-.113.234.234,0,0,1,.226.085l.019.019a4.918,4.918,0,0,0,2.29,1.178,3.285,3.285,0,0,0,.7.076,2.285,2.285,0,0,0,1.343-.405,1.319,1.319,0,0,0,.579-1.15.956.956,0,0,0-.141-.5,1.767,1.767,0,0,0-.316-.4,2.575,2.575,0,0,0-.551-.353q-.377-.193-.622-.3t-.754-.306L3.7,9.187q-.212-.085-.58-.25t-.589-.292Q2.314,8.518,2,8.311a3.313,3.313,0,0,1-.5-.4,5.869,5.869,0,0,1-.41-.462A2.308,2.308,0,0,1,.755,6.9a3.75,3.75,0,0,1-.2-.627,3.3,3.3,0,0,1-.08-.735A3.223,3.223,0,0,1,1.4,3.26,4.31,4.31,0,0,1,3.8,2V.3A.29.29,0,0,1,3.893.09.29.29,0,0,1,4.1,0H5.377a.291.291,0,0,1,.3.3V1.96a5.264,5.264,0,0,1,1.041.217,6,6,0,0,1,.82.316,4.568,4.568,0,0,1,.6.353q.282.2.367.273t.141.132a.272.272,0,0,1,.047.358L7.93,4.985a.257.257,0,0,1-.217.151.3.3,0,0,1-.254-.066q-.028-.028-.136-.113t-.367-.25A4.906,4.906,0,0,0,6.4,4.4a4.164,4.164,0,0,0-.7-.245A3.173,3.173,0,0,0,4.9,4.052a2.45,2.45,0,0,0-1.461.405,1.266,1.266,0,0,0-.485,1.5,1.063,1.063,0,0,0,.278.391,4.116,4.116,0,0,0,.372.311,3.346,3.346,0,0,0,.528.292q.353.165.57.254t.659.259q.5.189.763.3t.716.33a5.654,5.654,0,0,1,.712.4,6.106,6.106,0,0,1,.584.471,2.422,2.422,0,0,1,.5.6,3.416,3.416,0,0,1,.3.721,3.132,3.132,0,0,1,.122.886Z" transform="translate(-0.259)" fill="#fff"/>
</svg>
