<svg xmlns="http://www.w3.org/2000/svg" width="15.367" height="15.784" viewBox="0 0 15.367 15.784">
  <g id="settings" transform="translate(-2.715 -2.295)">
    <path id="Path_246" data-name="Path 246" d="M16.614,10.616V9.751L17.7,8.8a1.131,1.131,0,0,0,.215-1.442L16.579,5.1a1.14,1.14,0,0,0-1.34-.509l-1.374.463a6.416,6.416,0,0,0-.741-.424L12.837,3.2a1.131,1.131,0,0,0-1.131-.91H9.061A1.131,1.131,0,0,0,7.93,3.2L7.642,4.629a6.489,6.489,0,0,0-.746.424L5.55,4.567a1.131,1.131,0,0,0-.361-.034,1.131,1.131,0,0,0-.978.565L2.877,7.36a1.131,1.131,0,0,0,.232,1.419l1.068.978v.865l-1.068.95a1.131,1.131,0,0,0-.232,1.442l1.334,2.261a1.14,1.14,0,0,0,1.34.509l1.374-.463a6.416,6.416,0,0,0,.741.424l.288,1.425a1.131,1.131,0,0,0,1.131.91h2.668a1.131,1.131,0,0,0,1.131-.91l.288-1.425a6.49,6.49,0,0,0,.746-.424l1.368.463a1.14,1.14,0,0,0,1.34-.509l1.289-2.261a1.131,1.131,0,0,0-.232-1.419ZM15.6,14.709l-1.939-.656a5.008,5.008,0,0,1-1.532.887l-.4,2.03H9.061l-.4-2.007a5.291,5.291,0,0,1-1.527-.887l-1.944.633L3.855,12.448l1.538-1.357a5.031,5.031,0,0,1,0-1.769l-1.538-1.4L5.189,5.664l1.939.656A5.008,5.008,0,0,1,8.66,5.432l.4-2.03h2.668l.4,2.007a5.291,5.291,0,0,1,1.527.887L15.6,5.664l1.334,2.261L15.4,9.282a5.031,5.031,0,0,1,0,1.769l1.538,1.4Z" transform="translate(0 0)" fill="#fff"/>
    <path id="Path_247" data-name="Path 247" d="M14.642,18.034a3.358,3.358,0,1,1,2.408-.983A3.392,3.392,0,0,1,14.642,18.034Zm0-5.653a2.21,2.21,0,1,0,1.614.647,2.21,2.21,0,0,0-1.614-.647Z" transform="translate(-4.246 -4.455)" fill="#fff"/>
  </g>
</svg>
