<svg xmlns="http://www.w3.org/2000/svg" width="15.898" height="14.837" viewBox="0 0 15.898 14.837">
  <path id="users" d="M4.91,7.419a2.855,2.855,0,0,0-2.194,1.06H1.606A1.9,1.9,0,0,1,.464,8.143,1.134,1.134,0,0,1,0,7.162Q0,4.239,1.027,4.239a1.587,1.587,0,0,1,.36.174,5.458,5.458,0,0,0,.807.352,2.9,2.9,0,0,0,.985.178,3.33,3.33,0,0,0,1.1-.19,4.12,4.12,0,0,0-.042.547,3.646,3.646,0,0,0,.671,2.12Zm8.868,5.274a2.063,2.063,0,0,1-.6,1.569,2.233,2.233,0,0,1-1.606.575H4.33a2.232,2.232,0,0,1-1.606-.575,2.065,2.065,0,0,1-.6-1.569q0-.439.029-.857a8.457,8.457,0,0,1,.116-.9,7.065,7.065,0,0,1,.219-.9,4.23,4.23,0,0,1,.356-.807,2.924,2.924,0,0,1,.513-.671,2.153,2.153,0,0,1,.708-.443,2.489,2.489,0,0,1,.923-.166.973.973,0,0,1,.356.178l.6.4a3.637,3.637,0,0,0,.886.4,3.843,3.843,0,0,0,3.121-.4l.6-.4a.973.973,0,0,1,.356-.178,2.487,2.487,0,0,1,.923.166,2.159,2.159,0,0,1,.708.443,2.908,2.908,0,0,1,.513.671,4.267,4.267,0,0,1,.356.807,7.014,7.014,0,0,1,.219.9,8.457,8.457,0,0,1,.116.9q.029.418.029.857ZM5.3,2.12a2.043,2.043,0,0,1-.621,1.5,2.04,2.04,0,0,1-1.5.621,2.045,2.045,0,0,1-1.5-.621,2.041,2.041,0,0,1-.621-1.5,2.041,2.041,0,0,1,.621-1.5A2.045,2.045,0,0,1,3.179,0a2.04,2.04,0,0,1,1.5.621A2.043,2.043,0,0,1,5.3,2.12ZM11.128,5.3A3.064,3.064,0,0,1,10.2,7.547a3.061,3.061,0,0,1-2.248.931A3.066,3.066,0,0,1,5.7,7.547,3.062,3.062,0,0,1,4.769,5.3,3.062,3.062,0,0,1,5.7,3.051,3.066,3.066,0,0,1,7.949,2.12a3.061,3.061,0,0,1,2.248.931A3.064,3.064,0,0,1,11.128,5.3ZM15.9,7.162a1.135,1.135,0,0,1-.464.981,1.894,1.894,0,0,1-1.142.335H13.182a2.855,2.855,0,0,0-2.194-1.06,3.646,3.646,0,0,0,.671-2.12,4.12,4.12,0,0,0-.042-.547,3.33,3.33,0,0,0,1.1.19,2.907,2.907,0,0,0,.985-.178,5.43,5.43,0,0,0,.807-.352,1.575,1.575,0,0,1,.36-.174q1.027,0,1.027,2.923ZM14.837,2.12a2.043,2.043,0,0,1-.621,1.5,2.119,2.119,0,0,1-3,0,2.041,2.041,0,0,1-.621-1.5,2.041,2.041,0,0,1,.621-1.5,2.119,2.119,0,0,1,3,0A2.043,2.043,0,0,1,14.837,2.12Z" transform="translate(0 0)" fill="#fff"/>
</svg>
