<svg xmlns="http://www.w3.org/2000/svg" width="43.404" height="40.509" viewBox="0 0 43.404 40.509">
  <path id="usersgreen" d="M13.405,20.255a7.794,7.794,0,0,0-5.991,2.893H4.385a5.183,5.183,0,0,1-3.119-.915A3.1,3.1,0,0,1,0,19.554q0-7.98,2.8-7.98a4.334,4.334,0,0,1,.984.475,14.9,14.9,0,0,0,2.2.961,7.929,7.929,0,0,0,2.69.486,9.09,9.09,0,0,0,3.007-.52,11.248,11.248,0,0,0-.113,1.493,9.953,9.953,0,0,0,1.831,5.787Zm24.21,14.4a5.632,5.632,0,0,1-1.65,4.284,6.1,6.1,0,0,1-4.385,1.571H11.822a6.094,6.094,0,0,1-4.385-1.571,5.638,5.638,0,0,1-1.651-4.284q0-1.2.08-2.34a23.089,23.089,0,0,1,.317-2.464,19.288,19.288,0,0,1,.6-2.452,11.549,11.549,0,0,1,.972-2.2,7.984,7.984,0,0,1,1.4-1.831,5.878,5.878,0,0,1,1.933-1.209,6.8,6.8,0,0,1,2.521-.452,2.656,2.656,0,0,1,.972.486q.745.486,1.651,1.085a9.93,9.93,0,0,0,2.418,1.085,10.493,10.493,0,0,0,8.521-1.085q.905-.6,1.651-1.085a2.656,2.656,0,0,1,.972-.486,6.791,6.791,0,0,1,2.521.452,5.894,5.894,0,0,1,1.933,1.209,7.939,7.939,0,0,1,1.4,1.831,11.65,11.65,0,0,1,.972,2.2,19.149,19.149,0,0,1,.6,2.452,23.087,23.087,0,0,1,.317,2.464q.08,1.142.08,2.34ZM14.468,5.787a5.578,5.578,0,0,1-1.7,4.092,5.57,5.57,0,0,1-4.092,1.7,5.582,5.582,0,0,1-4.092-1.7,5.573,5.573,0,0,1-1.7-4.092A5.573,5.573,0,0,1,4.589,1.7,5.582,5.582,0,0,1,8.681,0a5.57,5.57,0,0,1,4.092,1.7A5.578,5.578,0,0,1,14.468,5.787Zm15.914,8.681a8.366,8.366,0,0,1-2.543,6.138A8.357,8.357,0,0,1,21.7,23.148a8.37,8.37,0,0,1-6.138-2.543,8.361,8.361,0,0,1-2.543-6.138A8.361,8.361,0,0,1,15.563,8.33,8.37,8.37,0,0,1,21.7,5.787,8.357,8.357,0,0,1,27.839,8.33,8.366,8.366,0,0,1,30.382,14.468ZM43.4,19.554a3.1,3.1,0,0,1-1.266,2.679,5.172,5.172,0,0,1-3.119.915H35.989A7.794,7.794,0,0,0,30,20.255a9.953,9.953,0,0,0,1.831-5.787,11.248,11.248,0,0,0-.113-1.493,9.09,9.09,0,0,0,3.007.52,7.936,7.936,0,0,0,2.69-.486,14.826,14.826,0,0,0,2.2-.961,4.3,4.3,0,0,1,.984-.475q2.8,0,2.8,7.98ZM40.509,5.787a5.578,5.578,0,0,1-1.7,4.092,5.786,5.786,0,0,1-8.184,0,5.573,5.573,0,0,1-1.7-4.092A5.573,5.573,0,0,1,30.63,1.7a5.786,5.786,0,0,1,8.184,0A5.578,5.578,0,0,1,40.509,5.787Z" fill="#22bf7d"/>
</svg>
